<svg version="1.2" xmlns="http://www.w3.org/2000/svg" viewBox="0 0 375 98" width="375" height="98">
	<title>in Depth-svg</title>
	<defs>
		<clipPath clipPathUnits="userSpaceOnUse" id="cp1">
			<path d="m71.62 3.07h93.38v93.43h-93.38z"/>
		</clipPath>
		<clipPath clipPathUnits="userSpaceOnUse" id="cp2">
			<path d="m152.31 3.07h-68.38l-12.31 12.31v68.49l12.31 12.31h68.38l12.31-12.31v-68.49z"/>
		</clipPath>
		<clipPath clipPathUnits="userSpaceOnUse" id="cp3">
			<path d="m71.62 212.8h93.38v93.2h-93.38z"/>
		</clipPath>
		<clipPath clipPathUnits="userSpaceOnUse" id="cp4">
			<path d="m152.31 212.8h-68.38l-12.31 12.31v68.49l12.31 12.31h68.38l12.31-12.31v-68.49z"/>
		</clipPath>
	</defs>
	<style>
		.s0 { fill: none;stroke: #000000;stroke-width: 1.5 } 
		.s1 { fill: none;stroke: #000000;stroke-width: 1.7 } 
		.s2 { fill: #000000 } 
		.s3 { fill: none;stroke: #ffffff;stroke-width: 1.5 } 
		.s4 { fill: none;stroke: #ffffff;stroke-width: 1.7 } 
		.s5 { fill: #ffffff } 
	</style>
	<g id="Clip-Path" clip-path="url(#cp1)">
		<g id="Layer">
			<g id="Clip-Path" clip-path="url(#cp2)">
				<g id="Layer">
					<path id="Layer" fill-rule="evenodd" class="s0" d="m152.3 3.1h-68.4l-12.3 12.3v68.5l12.3 12.3h68.4l12.3-12.3v-68.5z"/>
				</g>
			</g>
		</g>
	</g>
	<path id="Layer" fill-rule="evenodd" class="s1" d="m95.8 45.2l13.7-14.5"/>
	<path id="Layer" fill-rule="evenodd" class="s1" d="m126 44.8l13.7-14.4"/>
	<path id="Layer" fill-rule="evenodd" class="s1" d="m96.8 31.6l12.3 12.1"/>
	<path id="Layer" fill-rule="evenodd" class="s1" d="m126.7 31.9l12.3 12.1"/>
	<path id="Layer" fill-rule="evenodd" class="s1" d="m96.7 69.7q21.4-13.5 42.8-0.4"/>
	<g id="Layer">
		<g id="Layer">
			<g id="Layer">
				<path id="Layer" class="s2" d="m4.1 28.3l3 0.4v33.1l-3 0.4v1h13.7v-1l-3.1-0.4v-33.1l3.1-0.4v-1h-13.7z"/>
			</g>
		</g>
	</g>
	<g id="Layer">
		<g id="Layer">
			<g id="Layer">
				<path id="Layer" class="s2" d="m24.4 28.3l3 0.3v33.3l-3 0.3v1h7v-1l-3-0.3v-32.9l19.2 34.2h11.6v-1l-2.9-0.3v-33.3l2.9-0.3v-1h-6.9v1l2.9 0.3v33l-19.2-34.3h-11.6z"/>
			</g>
		</g>
	</g>
	<g id="Layer">
		<g id="Layer">
			<g id="Layer">
			</g>
		</g>
	</g>
	<g id="Layer">
		<g id="Layer">
			<g id="Layer">
			</g>
		</g>
	</g>
	<g id="Layer">
		<g id="Layer">
			<g id="Layer">
			</g>
		</g>
	</g>
	<g id="Layer">
		<g id="Layer">
			<g id="Layer">
			</g>
		</g>
	</g>
	<g id="Layer">
		<g id="Layer">
			<g id="Layer">
			</g>
		</g>
	</g>
	<g id="Layer">
		<g id="Layer">
			<g id="Layer">
			</g>
		</g>
	</g>
	<g id="Layer">
		<g id="Layer">
			<g id="Layer">
				<path id="Layer" fill-rule="evenodd" class="s2" d="m177.5 27.3h20.6c8 0 15.4 5.4 15.4 18 0 12.5-7.4 17.9-15.4 17.9h-20.6v-1l2.9-0.4v-33.1l-2.9-0.4zm10.5 34.9h6.2c5.9 0 11.7-4.1 11.7-16.9 0-12.7-5.4-17-11.7-17h-6.2z"/>
			</g>
		</g>
	</g>
	<g id="Layer">
		<g id="Layer">
			<g id="Layer">
				<path id="Layer" class="s2" d="m224.4 27.3h-3v1l3 0.4v33.1l-3 0.4v1h28.3v-9h-1l-4.4 8h-12.3v-16.4h10.1l0.7 3.8h1v-8.8h-1l-0.7 3.9h-10.1v-16.4h12.3l4.4 8h1v-9z"/>
			</g>
		</g>
	</g>
	<g id="Layer">
		<g id="Layer">
			<g id="Layer">
				<path id="Layer" fill-rule="evenodd" class="s2" d="m257.7 27.3h21.7c7.4 0 12.2 3.7 12.2 12.4 0 8.7-4.8 12.4-12.2 12.4h-11.1v9.7l3.1 0.4v1h-13.7v-1l3-0.4v-33.1l-3-0.4zm10.6 23.8h6.5c5 0 9.2-2.6 9.2-11.4 0-8.7-3.9-11.4-9.2-11.4h-6.5z"/>
			</g>
		</g>
	</g>
	<g id="Layer">
		<g id="Layer">
			<g id="Layer">
				<path id="Layer" class="s2" d="m300.6 37.5l4.4-9.2h4.9v33.5l-3 0.4v1h13.7v-1l-3-0.4v-33.5h4.8l4.5 9.2h1.1v-10.2h-28.5v10.2z"/>
			</g>
		</g>
	</g>
	<g id="Layer">
		<g id="Layer">
			<g id="Layer">
				<path id="Layer" class="s2" d="m334.5 28.3l3 0.4v33.1l-3 0.4v1h13.7v-1l-3.1-0.4v-16h15.3v16l-3.1 0.4v1h13.8v-1l-3.1-0.4v-33.1l3.1-0.4v-1h-13.8v1l3.1 0.4v16h-15.3v-16l3.1-0.4v-1h-13.7z"/>
			</g>
		</g>
	</g>
	<g id="Clip-Path" clip-path="url(#cp3)">
		<g id="Layer">
			<g id="Clip-Path" clip-path="url(#cp4)">
				<g id="Layer">
					<path id="Layer" fill-rule="evenodd" class="s3" d="m152.3 212.8h-68.4l-12.3 12.3v68.5l12.3 12.3h68.4l12.3-12.3v-68.5z"/>
				</g>
			</g>
		</g>
	</g>
	<path id="Layer" fill-rule="evenodd" class="s4" d="m95.8 254.9l13.7-14.4"/>
	<path id="Layer" fill-rule="evenodd" class="s4" d="m126 254.6l13.7-14.5"/>
	<path id="Layer" fill-rule="evenodd" class="s4" d="m96.8 241.3l12.3 12.1"/>
	<path id="Layer" fill-rule="evenodd" class="s4" d="m126.7 241.6l12.3 12.1"/>
	<path id="Layer" fill-rule="evenodd" class="s4" d="m96.7 279.4q21.4-13.4 42.8-0.3"/>
	<g id="Layer">
		<g id="Layer">
			<g id="Layer">
				<path id="Layer" class="s5" d="m4.1 238l3 0.4v33.2l-3 0.3v1.1h13.7v-1.1l-3.1-0.3v-33.2l3.1-0.4v-1h-13.7z"/>
			</g>
		</g>
	</g>
	<g id="Layer">
		<g id="Layer">
			<g id="Layer">
				<path id="Layer" class="s5" d="m24.4 238l3 0.3v33.4l-3 0.2v1.1h7v-1.1l-3-0.2v-32.9l19.2 34.2h11.6v-1.1l-2.9-0.2v-33.4l2.9-0.3v-1h-6.9v1l2.9 0.3v33l-19.2-34.3h-11.6z"/>
			</g>
		</g>
	</g>
	<g id="Layer">
		<g id="Layer">
			<g id="Layer">
			</g>
		</g>
	</g>
	<g id="Layer">
		<g id="Layer">
			<g id="Layer">
			</g>
		</g>
	</g>
	<g id="Layer">
		<g id="Layer">
			<g id="Layer">
			</g>
		</g>
	</g>
	<g id="Layer">
		<g id="Layer">
			<g id="Layer">
			</g>
		</g>
	</g>
	<g id="Layer">
		<g id="Layer">
			<g id="Layer">
			</g>
		</g>
	</g>
	<g id="Layer">
		<g id="Layer">
			<g id="Layer">
			</g>
		</g>
	</g>
	<g id="Layer">
		<g id="Layer">
			<g id="Layer">
				<path id="Layer" fill-rule="evenodd" class="s5" d="m177.5 237h20.6c8 0 15.4 5.5 15.4 18 0 12.5-7.4 18-15.4 18h-20.6v-1.1l2.9-0.3v-33.2l-2.9-0.4zm10.5 35h6.2c5.9 0 11.7-4.1 11.7-17 0-12.7-5.4-16.9-11.7-16.9h-6.2z"/>
			</g>
		</g>
	</g>
	<g id="Layer">
		<g id="Layer">
			<g id="Layer">
				<path id="Layer" class="s5" d="m224.4 237h-3v1l3 0.4v33.2l-3 0.3v1.1h28.3v-9.1h-1l-4.4 8h-12.3v-16.4h10.1l0.7 3.8h1v-8.7h-1l-0.7 3.9h-10.1v-16.5h12.3l4.4 8.1h1v-9.1z"/>
			</g>
		</g>
	</g>
	<g id="Layer">
		<g id="Layer">
			<g id="Layer">
				<path id="Layer" fill-rule="evenodd" class="s5" d="m257.7 237h21.7c7.4 0 12.2 3.7 12.2 12.4 0 8.8-4.8 12.5-12.2 12.5h-11.1v9.7l3.1 0.3v1.1h-13.7v-1.1l3-0.3v-33.2l-3-0.4zm10.6 23.9h6.5c5 0 9.2-2.7 9.2-11.4 0-8.8-3.9-11.4-9.2-11.4h-6.5z"/>
			</g>
		</g>
	</g>
	<g id="Layer">
		<g id="Layer">
			<g id="Layer">
				<path id="Layer" class="s5" d="m300.6 247.2l4.4-9.2h4.9v33.6l-3 0.3v1.1h13.7v-1.1l-3-0.3v-33.6h4.8l4.5 9.2h1.1v-10.2h-28.5v10.2z"/>
			</g>
		</g>
	</g>
	<g id="Layer">
		<g id="Layer">
			<g id="Layer">
				<path id="Layer" class="s5" d="m334.5 238l3 0.4v33.2l-3 0.3v1.1h13.7v-1.1l-3.1-0.3v-16.1h15.3v16.1l-3.1 0.3v1.1h13.8v-1.1l-3.1-0.3v-33.2l3.1-0.4v-1h-13.8v1l3.1 0.4v16.1h-15.3v-16.1l3.1-0.4v-1h-13.7z"/>
			</g>
		</g>
	</g>
</svg>